{"accessors":[{"bufferView":0,"byteOffset":0,"componentType":5126,"count":44581,"max":[8.735756874084473,6.0854973793029785,13.622206687927246],"min":[-6.254316329956055,-2.903903007507324,-20.882116317749023],"type":"VEC3"},{"bufferView":1,"byteOffset":0,"componentType":5126,"count":44581,"normalized":false,"type":"VEC2"},{"bufferView":2,"byteOffset":0,"componentType":5125,"count":267474,"type":"SCALAR"}],"asset":{"generator":"VTK","version":"2.0"},"bufferViews":[{"buffer":0,"byteLength":534972,"byteOffset":0,"target":34962},{"buffer":1,"byteLength":356648,"byteOffset":0,"target":34962},{"buffer":2,"byteLength":1069896,"byteOffset":0,"target":34963},{"buffer":3,"byteLength":311,"byteOffset":0,"target":34962}],"buffers":[{"byteLength":534972,"uri":"data:application/octet-stream;base64,"},{"byteLength":356648,"uri":"data:application/octet-stream;base64,"},{"byteLength":1069896,"uri":"data:application/octet-stream;base64,"},{"byteLength":311,"uri":"data:application/octet-stream;base64,"}],"cameras":[{"perspective":{"aspectRatio":1.8011695906432748,"yfov":0.5235987755982988,"zfar":119.72532568855736,"znear":39.11396699446452},"type":"perspective"}],"images":[{"bufferView":3,"mimeType":"image/png"}],"materials":[{"pbrMetallicRoughness":{"baseColorFactor":[1.0,1.0,1.0,1.0],"baseColorTexture":{"index":0,"texCoord":0},"metallicFactor":0.0,"roughnessFactor":1.0}}],"meshes":[{"name":"mesh0","primitives":[{"attributes":{"POSITION":0,"TEXCOORD_0":1},"indices":2,"material":0,"mode":4}]}],"nodes":[{"mesh":0,"name":"mesh0"},{"camera":0,"matrix":[0.8969031751962555,-0.14572196794590642,-0.4175282054913744,0.0,-0.15539738974939907,0.7800831929296246,-0.6060708402223256,0.0,0.41402457122971403,0.6084696542693766,0.6770142792078739,-0.0,32.17744862727134,47.05684368310996,46.957880554960454,1.0],"name":"Camera Node"},{"children":[0,1],"name":"Renderer Node"}],"samplers":[{"magFilter":9728,"minFilter":9728,"wrapS":33071,"wrapT":33071}],"scene":0,"scenes":[{"name":"Layer 0","nodes":[2]}],"textures":[{"sampler":0,"source":0}]}